<svg width="65" height="66" viewBox="0 0 65 66" fill="none" xmlns="http://www.w3.org/2000/svg">
<path d="M32.5 3.14648C40.5773 3.14648 47.4854 6.08539 53.2246 11.9633C58.9638 17.8412 61.8333 24.9164 61.8333 33.189C61.8333 41.4616 58.9638 48.5367 53.2246 54.4147C47.4854 60.2926 40.5773 63.2315 32.5 63.2315C24.4226 63.2315 17.5145 60.2926 11.7753 54.4147C6.03616 48.5367 3.16663 41.4616 3.16663 33.189C3.16663 24.9164 6.03616 17.8412 11.7753 11.9633C17.5145 6.08539 24.4226 3.14648 32.5 3.14648ZM36.9637 37.2382L36.8362 37.3688C27.6535 40.5908 21.1067 45.859 17.1956 53.1738L17.0681 53.3044C21.7444 56.9617 26.8883 58.7904 32.5 58.7904C35.8159 58.7904 39.0893 58.0938 42.3202 56.7005C41.3 50.6049 39.5145 44.1175 36.9637 37.2382ZM41.6826 36.0626C43.8932 42.5065 45.5086 48.6021 46.5289 54.3493C52.4807 50.3437 56.0516 44.64 57.242 37.2382C56.9019 37.064 56.0729 36.8246 54.755 36.5198C53.4371 36.215 51.5666 35.9538 49.1434 35.7361C46.7202 35.5184 44.2333 35.6272 41.6826 36.0626ZM33.1376 28.6173C25.4004 31.0555 16.8556 32.2746 7.50286 32.2746V33.189C7.50286 39.72 9.62844 45.4236 13.8797 50.3001C14.0497 49.9518 14.326 49.4947 14.7087 48.9286C15.0913 48.3626 15.9202 47.2741 17.1956 45.6631C18.471 44.0522 19.8314 42.55 21.2768 41.1568C22.7222 39.7635 24.614 38.3267 26.9521 36.8463C29.2903 35.366 31.7347 34.1904 34.2855 33.3196C34.6256 33.1454 34.9231 33.0584 35.1782 33.0584C34.7531 31.8392 34.0729 30.3589 33.1376 28.6173ZM51.8855 16.8615L51.3753 17.5146C51.0352 17.95 50.4826 18.5378 49.7173 19.278C48.9521 20.0182 48.0594 20.8019 47.0391 21.6291C46.0188 22.4564 44.7009 23.3707 43.0855 24.3722C41.47 25.3736 39.727 26.2661 37.8565 27.0499C38.3666 28.0948 38.9193 29.3139 39.5145 30.7072C39.5995 30.7943 39.7058 30.9902 39.8333 31.295C39.9608 31.5998 40.0671 31.8392 40.1521 32.0134C42.9579 31.6651 45.6999 31.578 48.3782 31.7522C51.0565 31.9263 53.2033 32.144 54.8188 32.4053C56.4343 32.6665 57.327 32.8407 57.4971 32.9277C57.4971 26.9192 55.6265 21.5639 51.8855 16.8615ZM21.7869 9.9387C18.3009 11.6803 15.3463 14.1185 12.9231 17.2534C10.4999 20.3883 8.86325 23.915 8.013 27.8336C15.7502 27.8336 23.4448 26.7886 31.0971 24.6987C29.8217 22.3475 28.4188 19.9746 26.8884 17.5799C25.3579 15.1852 24.1676 13.3566 23.3173 12.0939C22.4671 10.8313 21.957 10.1129 21.7869 9.9387ZM32.5 7.45693C30.4594 7.45693 28.5038 7.71817 26.6333 8.24065C30.1193 12.943 33.2227 17.9065 35.9434 23.1313C41.8101 20.8672 46.1463 17.8194 48.9521 13.9879L49.0797 13.8573C44.2333 9.59036 38.7068 7.45693 32.5 7.45693Z" fill="#FFF5E2"/>
</svg>
