<svg width="218" height="71" viewBox="0 0 218 71" fill="none" xmlns="http://www.w3.org/2000/svg">
<path d="M18.5 11L15.1279 20.2682C14.5796 21.7754 14.3054 22.529 13.879 23.1629C13.5012 23.7247 13.0369 24.2156 12.5055 24.615C11.9058 25.0658 11.193 25.3556 9.76723 25.9353L1 29.5L9.76723 33.0647C11.193 33.6444 11.9058 33.9342 12.5055 34.385C13.0369 34.7844 13.5012 35.2753 13.879 35.8371C14.3054 36.471 14.5796 37.2246 15.1279 38.7317L18.5 48L21.8721 38.7317C22.4204 37.2246 22.6946 36.471 23.121 35.8371C23.4988 35.2753 23.9631 34.7844 24.4945 34.385C25.0942 33.9342 25.807 33.6444 27.2327 33.0647L36 29.5L27.2327 25.9353C25.807 25.3556 25.0942 25.0658 24.4945 24.615C23.9631 24.2156 23.4988 23.7247 23.121 23.1629C22.6946 22.529 22.4204 21.7754 21.8721 20.2682L18.5 11Z" fill="#DBEE9B" stroke="#06231C" stroke-linecap="round" stroke-linejoin="round"/>
<mask id="path-2-outside-1_344_134" maskUnits="userSpaceOnUse" x="47" y="12" width="93" height="32" fill="black">
<rect fill="white" x="47" y="12" width="93" height="32"/>
<path d="M48.1289 42V24.6953C48.1289 21.6615 49.0339 19.2331 50.8438 17.4102C52.6667 15.5872 55.0885 14.6758 58.1094 14.6758C61.1172 14.6758 63.4154 15.5612 65.0039 17.332C66.6055 19.1029 67.4062 21.6484 67.4062 24.9688V42H59.4766V24.9688C59.4766 23.3411 58.8971 22.5273 57.7383 22.5273C56.6185 22.5273 56.0586 23.3411 56.0586 24.9688V42H48.1289ZM79.3883 22.5273V42H72.0836V22.5273H79.3883ZM75.7555 13.8359C76.7451 13.8359 77.5979 14.1875 78.3141 14.8906C79.0432 15.5807 79.4078 16.401 79.4078 17.3516C79.4078 18.3672 79.0628 19.2005 78.3727 19.8516C77.6956 20.5026 76.8232 20.8281 75.7555 20.8281C74.6878 20.8281 73.8089 20.5026 73.1187 19.8516C72.4417 19.2005 72.1031 18.3672 72.1031 17.3516C72.1031 16.401 72.4612 15.5807 73.1773 14.8906C73.9065 14.1875 74.7659 13.8359 75.7555 13.8359ZM100.335 22.5273L94.3586 34.3438H101.234V42H82.4641L88.4016 30.1445H82.2297V22.5273H100.335ZM115.11 34.6953V42.2539C114.511 42.3581 113.964 42.4102 113.47 42.4102C110.54 42.4102 108.098 41.4466 106.145 39.5195C104.192 37.5924 103.216 35.1771 103.216 32.2734C103.216 29.4479 104.199 27.0521 106.165 25.0859C108.144 23.1198 110.546 22.1367 113.372 22.1367C116.523 22.1367 119.003 23.0612 120.813 24.9102C122.636 26.7461 123.548 29.2591 123.548 32.4492V42H116.243V32.9766C116.243 31.9479 115.989 31.1276 115.481 30.5156C114.986 29.9036 114.316 29.5977 113.47 29.5977C112.701 29.5977 112.037 29.8776 111.477 30.4375C110.917 30.9974 110.638 31.6615 110.638 32.4297C110.638 33.237 110.891 33.901 111.399 34.4219C111.907 34.9427 112.552 35.2031 113.333 35.2031C113.971 35.2031 114.563 35.0339 115.11 34.6953ZM138.889 22.332V30.1445C138.381 29.8581 137.919 29.7148 137.502 29.7148C136.174 29.7148 135.51 30.7305 135.51 32.7617V42H128.205V31.3555C128.205 28.543 128.974 26.3034 130.51 24.6367C132.047 22.957 134.097 22.1172 136.662 22.1172C137.235 22.1172 137.978 22.1888 138.889 22.332Z"/>
</mask>
<path d="M48.1289 42H47.1289C47.1289 42.5523 47.5766 43 48.1289 43V42ZM50.8438 17.4102L50.1366 16.703L50.1341 16.7056L50.8438 17.4102ZM65.0039 17.332L64.2595 17.9998L64.2622 18.0028L65.0039 17.332ZM67.4062 42V43C67.9585 43 68.4062 42.5523 68.4062 42H67.4062ZM59.4766 42H58.4766C58.4766 42.5523 58.9243 43 59.4766 43V42ZM56.0586 42V43C56.6109 43 57.0586 42.5523 57.0586 42H56.0586ZM49.1289 42V24.6953H47.1289V42H49.1289ZM49.1289 24.6953C49.1289 21.8741 49.9628 19.7168 51.5534 18.1147L50.1341 16.7056C48.1049 18.7494 47.1289 21.4488 47.1289 24.6953H49.1289ZM51.5509 18.1173C53.1541 16.514 55.3046 15.6758 58.1094 15.6758V13.6758C54.8725 13.6758 52.1792 14.6605 50.1366 16.703L51.5509 18.1173ZM58.1094 15.6758C60.9135 15.6758 62.9084 16.4937 64.2595 17.9998L65.7483 16.6643C63.9223 14.6287 61.3208 13.6758 58.1094 13.6758V15.6758ZM64.2622 18.0028C65.6423 19.5287 66.4062 21.7993 66.4062 24.9688H68.4062C68.4062 21.4976 67.5687 18.6771 65.7456 16.6613L64.2622 18.0028ZM66.4062 24.9688V42H68.4062V24.9688H66.4062ZM67.4062 41H59.4766V43H67.4062V41ZM60.4766 42V24.9688H58.4766V42H60.4766ZM60.4766 24.9688C60.4766 24.0666 60.3214 23.2105 59.8566 22.5577C59.3473 21.8424 58.5818 21.5273 57.7383 21.5273V23.5273C58.0536 23.5273 58.1573 23.6192 58.2274 23.7177C58.342 23.8787 58.4766 24.2433 58.4766 24.9688H60.4766ZM57.7383 21.5273C56.9003 21.5273 56.1484 21.8532 55.6547 22.5709C55.2073 23.2211 55.0586 24.0713 55.0586 24.9688H57.0586C57.0586 24.2386 57.1898 23.8681 57.3024 23.7045C57.3685 23.6084 57.4564 23.5273 57.7383 23.5273V21.5273ZM55.0586 24.9688V42H57.0586V24.9688H55.0586ZM56.0586 41H48.1289V43H56.0586V41ZM79.3883 22.5273H80.3883C80.3883 21.9751 79.9406 21.5273 79.3883 21.5273V22.5273ZM79.3883 42V43C79.9406 43 80.3883 42.5523 80.3883 42H79.3883ZM72.0836 42H71.0836C71.0836 42.5523 71.5313 43 72.0836 43V42ZM72.0836 22.5273V21.5273C71.5313 21.5273 71.0836 21.9751 71.0836 22.5273H72.0836ZM78.3141 14.8906L77.6135 15.6042C77.6178 15.6085 77.6222 15.6127 77.6267 15.6169L78.3141 14.8906ZM78.3727 19.8516L77.6864 19.1241L77.6795 19.1307L78.3727 19.8516ZM73.1187 19.8516L72.4256 20.5724L72.4325 20.579L73.1187 19.8516ZM73.1773 14.8906L73.8712 15.6107L73.8715 15.6105L73.1773 14.8906ZM78.3883 22.5273V42H80.3883V22.5273H78.3883ZM79.3883 41H72.0836V43H79.3883V41ZM73.0836 42V22.5273H71.0836V42H73.0836ZM72.0836 23.5273H79.3883V21.5273H72.0836V23.5273ZM75.7555 14.8359C76.4789 14.8359 77.0813 15.0817 77.6135 15.6042L79.0147 14.1771C78.1145 13.2933 77.0112 12.8359 75.7555 12.8359V14.8359ZM77.6267 15.6169C78.1689 16.1301 78.4078 16.6927 78.4078 17.3516H80.4078C80.4078 16.1094 79.9176 15.0314 79.0014 14.1643L77.6267 15.6169ZM78.4078 17.3516C78.4078 18.1136 78.161 18.6764 77.6864 19.1242L79.0589 20.579C79.9645 19.7246 80.4078 18.6208 80.4078 17.3516H78.4078ZM77.6795 19.1307C77.2146 19.5778 76.603 19.8281 75.7555 19.8281V21.8281C77.0434 21.8281 78.1766 21.4274 79.0658 20.5724L77.6795 19.1307ZM75.7555 19.8281C74.9083 19.8281 74.2858 19.5777 73.805 19.1242L72.4325 20.579C73.332 21.4275 74.4672 21.8281 75.7555 21.8281V19.8281ZM73.8119 19.1307C73.3479 18.6846 73.1031 18.1197 73.1031 17.3516H71.1031C71.1031 18.6147 71.5355 19.7165 72.4256 20.5724L73.8119 19.1307ZM73.1031 17.3516C73.1031 16.6865 73.3405 16.1221 73.8712 15.6107L72.4834 14.1705C71.5819 15.0394 71.1031 16.1156 71.1031 17.3516H73.1031ZM73.8715 15.6105C74.4192 15.0823 75.0315 14.8359 75.7555 14.8359V12.8359C74.5002 12.8359 73.3939 13.2927 72.4832 14.1708L73.8715 15.6105ZM100.335 22.5273L101.228 22.9787C101.384 22.6687 101.369 22.2995 101.187 22.0036C101.005 21.7076 100.683 21.5273 100.335 21.5273V22.5273ZM94.3586 34.3438L93.4662 33.8924C93.3094 34.2024 93.3248 34.5716 93.5067 34.8675C93.6887 35.1635 94.0112 35.3438 94.3586 35.3438V34.3438ZM101.234 34.3438H102.234C102.234 33.7915 101.786 33.3438 101.234 33.3438V34.3438ZM101.234 42V43C101.786 43 102.234 42.5523 102.234 42H101.234ZM82.4641 42L81.5699 41.5522C81.4147 41.8622 81.4311 42.2305 81.6132 42.5255C81.7954 42.8204 82.1174 43 82.4641 43V42ZM88.4016 30.1445L89.2957 30.5923C89.4509 30.2823 89.4346 29.9141 89.2524 29.6191C89.0702 29.3241 88.7483 29.1445 88.4016 29.1445V30.1445ZM82.2297 30.1445H81.2297C81.2297 30.6968 81.6774 31.1445 82.2297 31.1445V30.1445ZM82.2297 22.5273V21.5273C81.6774 21.5273 81.2297 21.9751 81.2297 22.5273H82.2297ZM99.4428 22.076L93.4662 33.8924L95.2509 34.7951L101.228 22.9787L99.4428 22.076ZM94.3586 35.3438H101.234V33.3438H94.3586V35.3438ZM100.234 34.3438V42H102.234V34.3438H100.234ZM101.234 41H82.4641V43H101.234V41ZM83.3582 42.4478L89.2957 30.5923L87.5074 29.6967L81.5699 41.5522L83.3582 42.4478ZM88.4016 29.1445H82.2297V31.1445H88.4016V29.1445ZM83.2297 30.1445V22.5273H81.2297V30.1445H83.2297ZM82.2297 23.5273H100.335V21.5273H82.2297V23.5273ZM115.11 34.6953H116.11C116.11 34.3326 115.914 33.9982 115.597 33.8217C115.28 33.6452 114.892 33.6541 114.584 33.845L115.11 34.6953ZM115.11 42.2539L115.282 43.2391C115.76 43.1558 116.11 42.7401 116.11 42.2539H115.11ZM106.165 25.0859L105.46 24.3765L105.458 24.3788L106.165 25.0859ZM120.813 24.9102L120.099 25.6097L120.104 25.6147L120.813 24.9102ZM123.548 42V43C124.1 43 124.548 42.5523 124.548 42H123.548ZM116.243 42H115.243C115.243 42.5523 115.691 43 116.243 43V42ZM115.481 30.5156L114.704 31.1444L114.712 31.1542L115.481 30.5156ZM114.11 34.6953V42.2539H116.11V34.6953H114.11ZM114.939 41.2687C114.384 41.3652 113.896 41.4102 113.47 41.4102V43.4102C114.033 43.4102 114.638 43.351 115.282 43.2391L114.939 41.2687ZM113.47 41.4102C110.783 41.4102 108.6 40.5368 106.848 38.8077L105.443 40.2314C107.597 42.3565 110.297 43.4102 113.47 43.4102V41.4102ZM106.848 38.8077C105.097 37.0804 104.216 34.9269 104.216 32.2734H102.216C102.216 35.4273 103.287 38.1045 105.443 40.2314L106.848 38.8077ZM104.216 32.2734C104.216 29.7083 105.097 27.5683 106.872 25.793L105.458 24.3788C103.301 26.5359 102.216 29.1875 102.216 32.2734H104.216ZM106.87 25.7954C108.659 24.018 110.807 23.1367 113.372 23.1367V21.1367C110.286 21.1367 107.629 22.2216 105.46 24.3765L106.87 25.7954ZM113.372 23.1367C116.317 23.1367 118.517 23.9935 120.099 25.6097L121.528 24.2106C119.49 22.1289 116.729 21.1367 113.372 21.1367V23.1367ZM120.104 25.6147C121.699 27.2217 122.548 29.4579 122.548 32.4492H124.548C124.548 29.0603 123.573 26.2705 121.523 24.2056L120.104 25.6147ZM122.548 32.4492V42H124.548V32.4492H122.548ZM123.548 41H116.243V43H123.548V41ZM117.243 42V32.9766H115.243V42H117.243ZM117.243 32.9766C117.243 31.7843 116.947 30.7156 116.251 29.8771L114.712 31.1542C115.031 31.5396 115.243 32.1116 115.243 32.9766H117.243ZM116.259 29.8869C115.558 29.0205 114.592 28.5977 113.47 28.5977V30.5977C114.04 30.5977 114.415 30.7868 114.704 31.1443L116.259 29.8869ZM113.47 28.5977C112.427 28.5977 111.511 28.9894 110.77 29.7304L112.184 31.1446C112.563 30.7658 112.975 30.5977 113.47 30.5977V28.5977ZM110.77 29.7304C110.029 30.4714 109.638 31.3873 109.638 32.4297H111.637C111.637 31.9356 111.806 31.5234 112.184 31.1446L110.77 29.7304ZM109.638 32.4297C109.638 33.4665 109.973 34.3911 110.683 35.12L112.115 33.7238C111.81 33.4109 111.637 33.0074 111.637 32.4297H109.638ZM110.683 35.12C111.394 35.8492 112.304 36.2031 113.333 36.2031V34.2031C112.799 34.2031 112.42 34.0363 112.115 33.7238L110.683 35.12ZM113.333 36.2031C114.158 36.2031 114.933 35.9812 115.637 35.5456L114.584 33.845C114.194 34.0865 113.783 34.2031 113.333 34.2031V36.2031ZM138.889 22.332H139.889C139.889 21.8397 139.531 21.4206 139.044 21.3442L138.889 22.332ZM138.889 30.1445L138.398 31.0155C138.707 31.1902 139.086 31.1873 139.393 31.008C139.7 30.8288 139.889 30.5 139.889 30.1445H138.889ZM135.51 42V43C136.062 43 136.51 42.5523 136.51 42H135.51ZM128.205 42H127.205C127.205 42.5523 127.653 43 128.205 43V42ZM130.51 24.6367L131.245 25.3145L131.248 25.3117L130.51 24.6367ZM137.889 22.332V30.1445H139.889V22.332H137.889ZM139.38 29.2736C138.779 28.9345 138.146 28.7148 137.502 28.7148V30.7148C137.692 30.7148 137.983 30.7816 138.398 31.0155L139.38 29.2736ZM137.502 28.7148C136.539 28.7148 135.708 29.1087 135.171 29.9293C134.683 30.676 134.51 31.669 134.51 32.7617H136.51C136.51 31.8232 136.669 31.2927 136.845 31.0238C136.973 30.8288 137.138 30.7148 137.502 30.7148V28.7148ZM134.51 32.7617V42H136.51V32.7617H134.51ZM135.51 41H128.205V43H135.51V41ZM129.205 42V31.3555H127.205V42H129.205ZM129.205 31.3555C129.205 28.7309 129.918 26.7548 131.245 25.3145L129.775 23.9589C128.03 25.852 127.205 28.355 127.205 31.3555H129.205ZM131.248 25.3117C132.57 23.8665 134.339 23.1172 136.662 23.1172V21.1172C133.856 21.1172 131.523 22.0476 129.772 23.9618L131.248 25.3117ZM136.662 23.1172C137.162 23.1172 137.847 23.1805 138.734 23.3199L139.044 21.3442C138.108 21.1971 137.309 21.1172 136.662 21.1172V23.1172Z" fill="#06231C" mask="url(#path-2-outside-1_344_134)"/>
<mask id="mask0_344_134" style="mask-type:alpha" maskUnits="userSpaceOnUse" x="48" y="13" width="91" height="30">
<path d="M48.1289 42V24.6953C48.1289 21.6615 49.0339 19.2331 50.8438 17.4102C52.6667 15.5872 55.0885 14.6758 58.1094 14.6758C61.1172 14.6758 63.4154 15.5612 65.0039 17.332C66.6055 19.1029 67.4062 21.6484 67.4062 24.9688V42H59.4766V24.9688C59.4766 23.3411 58.8971 22.5273 57.7383 22.5273C56.6185 22.5273 56.0586 23.3411 56.0586 24.9688V42H48.1289ZM79.3883 22.5273V42H72.0836V22.5273H79.3883ZM75.7555 13.8359C76.7451 13.8359 77.5979 14.1875 78.3141 14.8906C79.0432 15.5807 79.4078 16.401 79.4078 17.3516C79.4078 18.3672 79.0628 19.2005 78.3727 19.8516C77.6956 20.5026 76.8232 20.8281 75.7555 20.8281C74.6878 20.8281 73.8089 20.5026 73.1187 19.8516C72.4417 19.2005 72.1031 18.3672 72.1031 17.3516C72.1031 16.401 72.4612 15.5807 73.1773 14.8906C73.9065 14.1875 74.7659 13.8359 75.7555 13.8359ZM100.335 22.5273L94.3586 34.3438H101.234V42H82.4641L88.4016 30.1445H82.2297V22.5273H100.335ZM115.11 34.6953V42.2539C114.511 42.3581 113.964 42.4102 113.47 42.4102C110.54 42.4102 108.098 41.4466 106.145 39.5195C104.192 37.5924 103.216 35.1771 103.216 32.2734C103.216 29.4479 104.199 27.0521 106.165 25.0859C108.144 23.1198 110.546 22.1367 113.372 22.1367C116.523 22.1367 119.003 23.0612 120.813 24.9102C122.636 26.7461 123.548 29.2591 123.548 32.4492V42H116.243V32.9766C116.243 31.9479 115.989 31.1276 115.481 30.5156C114.986 29.9036 114.316 29.5977 113.47 29.5977C112.701 29.5977 112.037 29.8776 111.477 30.4375C110.917 30.9974 110.638 31.6615 110.638 32.4297C110.638 33.237 110.891 33.901 111.399 34.4219C111.907 34.9427 112.552 35.2031 113.333 35.2031C113.971 35.2031 114.563 35.0339 115.11 34.6953ZM138.889 22.332V30.1445C138.381 29.8581 137.919 29.7148 137.502 29.7148C136.174 29.7148 135.51 30.7305 135.51 32.7617V42H128.205V31.3555C128.205 28.543 128.974 26.3034 130.51 24.6367C132.047 22.957 134.097 22.1172 136.662 22.1172C137.235 22.1172 137.978 22.1888 138.889 22.332Z" fill="white"/>
</mask>
<g mask="url(#mask0_344_134)">
<path fill-rule="evenodd" clip-rule="evenodd" d="M48 28.7055L51.9167 30.2937C55.8333 31.882 63.6667 35.0586 71.5 36.6469C79.3333 38.2352 87.1667 38.2352 95 35.4557C102.833 32.6762 110.667 27.1172 118.5 25.5289C126.333 23.9406 134.167 26.323 138.083 27.5142L142 28.7055V43H138.083C134.167 43 126.333 43 118.5 43C110.667 43 102.833 43 95 43C87.1667 43 79.3333 43 71.5 43C63.6667 43 55.8333 43 51.9167 43H48V28.7055Z" fill="#DBEE9B"/>
</g>
</svg>
