<svg width="321" height="321" viewBox="0 0 321 321" fill="none" xmlns="http://www.w3.org/2000/svg">
<path d="M216.907 318.877C214.73 318.877 212.679 317.756 211.516 315.871L161.899 235.571C161.067 234.222 160.768 232.611 161.064 231.057L174.062 162.438L105.439 175.432C103.881 175.728 102.274 175.432 100.925 174.597L20.6285 124.98C18.4968 123.662 17.3411 121.217 17.6758 118.736C18.0105 116.256 19.7758 114.201 22.1788 113.5L294.896 33.7322C297.116 33.0804 299.526 33.6934 301.161 35.3354C302.799 36.9738 303.416 39.3768 302.764 41.6001L222.996 314.317C222.291 316.72 220.24 318.485 217.76 318.824C217.478 318.859 217.193 318.877 216.907 318.877Z" fill="#DBEE9B"/>
<path d="M31.0967 311.738C29.4724 311.738 27.8516 311.118 26.6113 309.881C24.1343 307.404 24.1343 303.391 26.6113 300.914L120.082 207.443C122.556 204.966 126.572 204.966 129.049 207.443C131.526 209.92 131.526 213.933 129.049 216.41L35.5821 309.881C34.3453 311.118 32.721 311.738 31.0967 311.738Z" fill="#DBEE9B"/>
<path d="M98.5959 317.876C96.9716 317.876 95.3508 317.256 94.1106 316.019C91.6336 313.542 91.6336 309.529 94.1106 307.052L129.289 271.873C131.762 269.396 135.779 269.396 138.256 271.873C140.733 274.35 140.733 278.364 138.256 280.841L103.078 316.019C101.841 317.256 100.217 317.876 98.5959 317.876Z" fill="#DBEE9B"/>
<path d="M24.9623 244.242C23.338 244.242 21.7136 243.622 20.4769 242.385C17.9999 239.908 17.9999 235.895 20.4769 233.418L55.6553 198.24C58.1288 195.763 62.1455 195.763 64.6225 198.24C67.0995 200.717 67.0995 204.73 64.6225 207.207L29.4441 242.385C28.2074 243.626 26.5831 244.242 24.9623 244.242Z" fill="#DBEE9B"/>
<path d="M216.907 287.165C214.73 287.165 212.679 286.045 211.516 284.16L161.899 203.86C161.067 202.51 160.768 200.9 161.064 199.346L174.062 130.727L105.439 143.721C103.881 144.017 102.274 143.721 100.925 142.886L20.6285 93.2685C18.4968 91.9507 17.3411 89.5054 17.6758 87.0249C18.0105 84.5444 19.7758 82.4902 22.1788 81.789L294.896 2.02101C297.116 1.36917 299.526 1.98226 301.161 3.6242C302.799 5.26261 303.416 7.66562 302.764 9.88894L222.996 282.606C222.291 285.009 220.24 286.774 217.76 287.113C217.478 287.148 217.193 287.165 216.907 287.165ZM173.984 199.286L214.821 265.376L287.338 17.4468L39.4086 89.9635L105.498 130.804L180.844 116.534C182.902 116.15 185.027 116.795 186.51 118.282C187.994 119.765 188.645 121.886 188.258 123.947L173.984 199.286Z" fill="#08274A"/>
<path d="M31.0967 280.027C29.4724 280.027 27.8516 279.407 26.6113 278.17C24.1343 275.693 24.1343 271.68 26.6113 269.203L120.082 175.732C122.556 173.255 126.572 173.255 129.049 175.732C131.526 178.209 131.526 182.222 129.049 184.699L35.5821 278.17C34.3453 279.407 32.721 280.027 31.0967 280.027Z" fill="#08274A"/>
<path d="M98.5959 286.165C96.9716 286.165 95.3508 285.545 94.1106 284.308C91.6336 281.831 91.6336 277.818 94.1106 275.341L129.289 240.162C131.762 237.685 135.779 237.685 138.256 240.162C140.733 242.639 140.733 246.652 138.256 249.129L103.078 284.308C101.841 285.545 100.217 286.165 98.5959 286.165Z" fill="#08274A"/>
<path d="M24.9623 212.531C23.338 212.531 21.7136 211.911 20.4769 210.674C17.9999 208.197 17.9999 204.184 20.4769 201.707L55.6553 166.529C58.1288 164.052 62.1455 164.052 64.6225 166.529C67.0995 169.006 67.0995 173.019 64.6225 175.496L29.4441 210.674C28.2074 211.915 26.5831 212.531 24.9623 212.531Z" fill="#08274A"/>
</svg>
