<svg width="51" height="75" viewBox="0 0 51 75" fill="none" xmlns="http://www.w3.org/2000/svg">
<g clip-path="url(#clip0_364_511)">
<path d="M12.7526 75C19.7892 75 25.5 69.4 25.5 62.5V50H12.7526C5.71598 50 0.00512695 55.6 0.00512695 62.5C0.00512695 69.4 5.71598 75 12.7526 75Z" fill="#0ACF83"/>
<path d="M0.00512695 37.5C0.00512695 30.6 5.71598 25 12.7526 25H25.5V50H12.7526C5.71598 50 0.00512695 44.4 0.00512695 37.5Z" fill="#A259FF"/>
<path d="M0.00549316 12.5C0.00549316 5.6 5.71635 0 12.7529 0H25.5004V25H12.7529C5.71635 25 0.00549316 19.4 0.00549316 12.5Z" fill="#F24E1E"/>
<path d="M25.5 0H38.2474C45.284 0 50.9949 5.6 50.9949 12.5C50.9949 19.4 45.284 25 38.2474 25H25.5V0Z" fill="#FF7262"/>
<path d="M50.9949 37.5C50.9949 44.4 45.284 50 38.2474 50C31.2109 50 25.5 44.4 25.5 37.5C25.5 30.6 31.2109 25 38.2474 25C45.284 25 50.9949 30.6 50.9949 37.5Z" fill="#1ABCFE"/>
</g>
<defs>
<clipPath id="clip0_364_511">
<rect width="51" height="75" fill="white"/>
</clipPath>
</defs>
</svg>
