<svg width="84" height="58" viewBox="0 0 84 58" fill="none" xmlns="http://www.w3.org/2000/svg">
<path d="M47.92 58H78.26C79.2281 58 80.1549 57.6515 80.9933 57.16C81.8318 56.6685 82.6961 56.0514 83.18 55.1999C83.6639 54.3486 84.0004 53.3826 84 52.3997C83.9996 51.4167 83.6646 50.4511 83.18 49.6002L62.68 13.4801C62.1961 12.6288 61.6049 12.0114 60.7667 11.5199C59.9284 11.0286 58.728 10.6799 57.76 10.6799C56.7921 10.6799 55.8649 11.0286 55.0267 11.5199C54.1884 12.0114 53.5971 12.6288 53.1133 13.4801L47.92 22.72L37.5333 4.79934C37.049 3.94824 36.4586 3.05139 35.62 2.56007C34.7814 2.06855 33.8549 2 32.8867 2C31.9186 2 30.9918 2.06855 30.1533 2.56007C29.3149 3.05139 28.451 3.94824 27.9667 4.79934L2.54667 49.6002C2.06204 50.4511 2.00043 51.4167 2 52.3997C1.99958 53.3826 2.06278 54.3484 2.54667 55.1999C3.03057 56.0512 3.89488 56.6685 4.73333 57.16C5.5718 57.6515 6.49846 58 7.46668 58H26.6C34.1813 58 39.6995 54.5162 43.5467 47.92L52.84 31.4L57.76 22.72L72.7933 49.0399H52.84L47.92 58ZM26.3267 49.0399H12.9333L32.8867 13.76L43 31.4L36.3009 43.3628C33.7462 47.6427 30.8333 49.0399 26.3267 49.0399Z" fill="#00DC82"/>
</svg>
