<svg width="75" height="75" viewBox="0 0 75 75" fill="none" xmlns="http://www.w3.org/2000/svg">
<path d="M37.5 7.58887C21.1534 7.58887 7.90002 20.8423 7.90002 37.1889C7.90002 51.0589 17.451 62.6646 30.327 65.8762C30.1888 65.4766 30.1 65.0129 30.1 64.4381V59.379C28.8988 59.379 26.886 59.379 26.3803 59.379C24.3552 59.379 22.5545 58.5083 21.6813 56.8901C20.7119 55.0919 20.5442 52.3416 18.1416 50.6593C17.4288 50.0994 17.9714 49.4605 18.7928 49.5469C20.3098 49.9761 21.5678 51.017 22.7518 52.5611C23.9309 54.1077 24.4859 54.458 26.6886 54.458C27.7567 54.458 29.3551 54.3963 30.8598 54.1595C31.6688 52.1048 33.0674 50.2129 34.7768 49.3199C24.92 48.3061 20.2161 43.4024 20.2161 36.7449C20.2161 33.8786 21.4371 31.1061 23.5116 28.7701C22.8308 26.4515 21.9748 21.7229 23.773 19.9222C28.2081 19.9222 30.8894 22.7983 31.5332 23.5753C33.7433 22.8181 36.1705 22.3889 38.721 22.3889C41.2765 22.3889 43.7136 22.8181 45.9286 23.5803C46.565 22.8082 49.2488 19.9222 53.6937 19.9222C55.4993 21.7253 54.6335 26.4737 53.9453 28.7874C56.0074 31.1184 57.221 33.8835 57.221 36.7449C57.221 43.3975 52.5245 48.2987 42.6825 49.3175C45.3909 50.7309 47.3667 54.7022 47.3667 57.6943V64.4381C47.3667 64.6947 47.31 64.8797 47.2804 65.0992C58.8145 61.0563 67.1 50.1043 67.1 37.1889C67.1 20.8423 53.8466 7.58887 37.5 7.58887Z" fill="#FFF5E2"/>
</svg>
