<svg width="64" height="66" viewBox="0 0 64 66" fill="none" xmlns="http://www.w3.org/2000/svg">
<path d="M31.9999 2.84302C24.0335 2.84302 23.0345 2.8776 19.9059 3.02381C16.7836 3.16965 14.6514 3.67756 12.7854 4.42027C10.8566 5.18791 9.22066 6.21516 7.58994 7.88531C5.95909 9.55558 4.9562 11.231 4.20657 13.2064C3.48139 15.1175 2.98559 17.3012 2.84307 20.499C2.70032 23.7034 2.66667 24.7263 2.66667 32.8854C2.66667 41.0446 2.70032 42.0676 2.84307 45.272C2.98559 48.4697 3.48139 50.6536 4.20657 52.5645C4.9562 54.5399 5.95909 56.2154 7.58994 57.8856C9.22066 59.5559 10.8566 60.583 12.7854 61.3509C14.6514 62.0935 16.7836 62.6014 19.9059 62.7473C23.0345 62.8934 24.0335 62.928 31.9999 62.928C39.9665 62.928 40.9653 62.8934 44.094 62.7473C47.2163 62.6014 49.3485 62.0935 51.2144 61.3509C53.1434 60.583 54.7792 59.5559 56.4099 57.8856C58.0408 56.2154 59.0437 54.54 59.7933 52.5645C60.5185 50.6536 61.0144 48.4697 61.1568 45.272C61.2996 42.0676 61.3333 41.0446 61.3333 32.8854C61.3333 24.7265 61.2996 23.7034 61.1568 20.499C61.0144 17.3012 60.5185 15.1175 59.7933 13.2064C59.0437 11.231 58.0408 9.55558 56.4099 7.88531C54.7792 6.21516 53.1434 5.18791 51.2144 4.42027C49.3485 3.67756 47.2163 3.16965 44.094 3.02381C40.9653 2.8776 39.9665 2.84302 31.9999 2.84302ZM31.9999 8.25607L34.8706 8.25803C38.657 8.26424 40.2652 8.28665 41.8642 8.34522L42.3998 8.36611C42.8509 8.38468 43.3198 8.40621 43.8531 8.43113C46.713 8.56482 48.2662 9.05424 49.2998 9.46566C50.669 10.0107 51.6463 10.6617 52.6727 11.7129C53.6991 12.7642 54.3348 13.765 54.867 15.1673C55.2686 16.2259 55.7465 17.8167 55.877 20.7458C55.9013 21.2919 55.9223 21.7722 55.9405 22.2342L55.9608 22.7827L55.9786 23.332C56.0227 24.814 56.0406 26.4984 56.046 29.9454V35.8256C56.0406 39.2726 56.0227 40.957 55.9786 42.4389L55.9608 42.9882L55.9405 43.5368C55.9223 43.9987 55.9013 44.479 55.877 45.0251C55.7465 47.9544 55.2686 49.5451 54.867 50.6037C54.3348 52.0059 53.6991 53.0068 52.6727 54.058C51.6463 55.1094 50.669 55.7604 49.2998 56.3054C48.2662 56.7167 46.713 57.2062 43.8531 57.3398C41.187 57.4644 40.13 57.5043 34.8708 57.513L32.786 57.5148C32.5319 57.5149 32.27 57.515 31.9999 57.515L29.129 57.513C23.8699 57.5043 22.8129 57.4644 20.1468 57.3398C17.2868 57.2062 15.7336 56.7167 14.6999 56.3054C13.3308 55.7604 12.3536 55.1094 11.3272 54.058C10.3007 53.0068 9.66499 52.0059 9.13287 50.6037C8.73127 49.5451 8.2534 47.9544 8.12288 45.0253C8.09854 44.4791 8.07752 43.9988 8.05939 43.5369L8.03899 42.9883C7.98181 41.3506 7.95992 39.7034 7.95386 35.8256L7.95205 33.6904C7.95198 33.4303 7.95194 33.1621 7.95194 32.8854L7.95386 29.9454C7.95992 26.0676 7.98181 24.4204 8.03899 22.7827L8.05939 22.2342C8.07752 21.7722 8.09854 21.2919 8.12288 20.7458C8.2534 17.8167 8.73127 16.2259 9.13287 15.1673C9.66499 13.765 10.3007 12.7642 11.3272 11.713C12.3536 10.6617 13.3308 10.0107 14.6999 9.46566C15.7336 9.05424 17.2868 8.56482 20.1467 8.43113C22.8132 8.30653 23.8705 8.26666 29.1292 8.25803L31.214 8.25618C31.468 8.25611 31.7299 8.25607 31.9999 8.25607ZM31.9999 17.4583C23.6809 17.4583 16.9368 24.3652 16.9368 32.8854C16.9368 41.4058 23.6809 48.3127 31.9999 48.3127C40.319 48.3127 47.0629 41.4058 47.0629 32.8854C47.0629 24.3652 40.319 17.4583 31.9999 17.4583ZM31.9999 22.8713C37.4 22.8713 41.7778 27.3548 41.7778 32.8854C41.7778 38.4161 37.4 42.8997 31.9999 42.8997C26.5999 42.8997 22.2221 38.4161 22.2221 32.8854C22.2221 27.3548 26.5999 22.8713 31.9999 22.8713ZM47.6582 13.2437C45.7141 13.2437 44.1381 14.8577 44.1381 16.8488C44.1381 18.8398 45.7141 20.4538 47.6582 20.4538C49.6022 20.4538 51.1781 18.8398 51.1781 16.8488C51.1781 14.8577 49.6022 13.2437 47.6582 13.2437Z" fill="#101010"/>
</svg>
