<svg width="65" height="66" viewBox="0 0 65 66" fill="none" xmlns="http://www.w3.org/2000/svg">
<path d="M32.4999 3.14648C24.5335 3.14648 23.5345 3.18107 20.4059 3.32727C17.2836 3.47312 15.1513 3.98102 13.2854 4.72374C11.3566 5.49137 9.72062 6.51863 8.08989 8.18878C6.45905 9.85905 5.45616 11.5344 4.70653 13.5099C3.98135 15.4209 3.48555 17.6047 3.34303 20.8025C3.20028 24.0068 3.16663 25.0298 3.16663 33.1889C3.16663 41.348 3.20028 42.3711 3.34303 45.5755C3.48555 48.7731 3.98135 50.957 4.70653 52.868C5.45616 54.8434 6.45905 56.5189 8.08989 58.1891C9.72062 59.8593 11.3566 60.8865 13.2854 61.6543C15.1513 62.3969 17.2836 62.9048 20.4059 63.0508C23.5345 63.1969 24.5335 63.2315 32.4999 63.2315C40.4664 63.2315 41.4652 63.1969 44.5939 63.0508C47.7162 62.9048 49.8485 62.3969 51.7144 61.6543C53.6433 60.8865 55.2792 59.8593 56.9099 58.1891C58.5407 56.5189 59.5436 54.8435 60.2933 52.868C61.0184 50.957 61.5144 48.7731 61.6568 45.5755C61.7995 42.3711 61.8333 41.348 61.8333 33.1889C61.8333 25.0299 61.7995 24.0068 61.6568 20.8025C61.5144 17.6047 61.0184 15.4209 60.2933 13.5099C59.5436 11.5344 58.5407 9.85905 56.9099 8.18878C55.2792 6.51863 53.6433 5.49137 51.7144 4.72374C49.8485 3.98102 47.7162 3.47312 44.5939 3.32727C41.4652 3.18107 40.4664 3.14648 32.4999 3.14648ZM32.4999 8.55954L35.3706 8.5615C39.1569 8.56771 40.7651 8.59012 42.3641 8.64869L42.8998 8.66958C43.3508 8.68815 43.8197 8.70968 44.353 8.7346C47.213 8.86828 48.7662 9.3577 49.7998 9.76913C51.169 10.3141 52.1463 10.9651 53.1727 12.0163C54.1991 13.0677 54.8347 14.0685 55.367 15.4708C55.7686 16.5294 56.2464 18.1201 56.377 21.0492C56.4013 21.5954 56.4223 22.0757 56.4404 22.5376L56.4608 23.0862L56.4786 23.6355C56.5226 25.1175 56.5406 26.8019 56.546 30.2489V36.129C56.5406 39.576 56.5226 41.2605 56.4786 42.7424L56.4608 43.2917L56.4404 43.8403C56.4223 44.3022 56.4013 44.7824 56.377 45.3286C56.2464 48.2578 55.7686 49.8486 55.367 50.9072C54.8347 52.3094 54.1991 53.3103 53.1727 54.3615C52.1463 55.4128 51.169 56.0638 49.7998 56.6088C48.7662 57.0201 47.213 57.5097 44.353 57.6432C41.687 57.7678 40.6299 57.8078 35.3708 57.8164L33.2859 57.8183C33.0319 57.8184 32.77 57.8184 32.4999 57.8184L29.629 57.8164C24.3699 57.8078 23.3128 57.7678 20.6468 57.6432C17.7868 57.5097 16.2335 57.0201 15.1999 56.6088C13.8308 56.0638 12.8535 55.4128 11.8271 54.3615C10.8007 53.3103 10.1649 52.3094 9.63282 50.9072C9.23123 49.8486 8.75336 48.2578 8.62283 45.3287C8.5985 44.7825 8.57748 44.3023 8.55935 43.8403L8.53895 43.2917C8.48176 41.6541 8.45988 40.0069 8.45382 36.129L8.45201 33.9939C8.45194 33.7337 8.4519 33.4655 8.4519 33.1889L8.45382 30.2489C8.45988 26.371 8.48176 24.7239 8.53895 23.0862L8.55935 22.5376C8.57748 22.0757 8.5985 21.5954 8.62283 21.0492C8.75336 18.1201 9.23123 16.5294 9.63282 15.4708C10.1649 14.0685 10.8007 13.0677 11.8271 12.0165C12.8535 10.9651 13.8308 10.3141 15.1999 9.76913C16.2335 9.3577 17.7868 8.86828 20.6467 8.7346C23.3132 8.61 24.3704 8.57013 29.6292 8.5615L31.7139 8.55965C31.9679 8.55957 32.2298 8.55954 32.4999 8.55954ZM32.4999 17.7618C24.1808 17.7618 17.4368 24.6687 17.4368 33.1889C17.4368 41.7092 24.1808 48.6162 32.4999 48.6162C40.819 48.6162 47.5629 41.7092 47.5629 33.1889C47.5629 24.6687 40.819 17.7618 32.4999 17.7618ZM32.4999 23.1748C37.9 23.1748 42.2777 27.6583 42.2777 33.1889C42.2777 38.7196 37.9 43.2031 32.4999 43.2031C27.0998 43.2031 22.7221 38.7196 22.7221 33.1889C22.7221 27.6583 27.0998 23.1748 32.4999 23.1748ZM48.1581 13.5472C46.2141 13.5472 44.6381 15.1612 44.6381 17.1522C44.6381 19.1433 46.2141 20.7573 48.1581 20.7573C50.1022 20.7573 51.6781 19.1433 51.6781 17.1522C51.6781 15.1612 50.1022 13.5472 48.1581 13.5472Z" fill="#FFF5E2"/>
</svg>
