<svg width="64" height="66" viewBox="0 0 64 66" fill="none" xmlns="http://www.w3.org/2000/svg">
<path d="M56.0264 2.84302H7.97353C5.04266 2.84302 2.66666 5.27646 2.66666 8.27819V57.4927C2.66666 60.4946 5.04266 62.928 7.97353 62.928H56.0263C58.9573 62.928 61.3333 60.4946 61.3333 57.4927V8.27819C61.3333 5.27646 58.9573 2.84302 56.0264 2.84302ZM20.8206 54.7244C20.8206 55.5979 20.1292 56.3061 19.2762 56.3061H12.7022C11.8492 56.3061 11.1578 55.5979 11.1578 54.7244V26.5C11.1578 25.6264 11.8492 24.9183 12.7022 24.9183H19.2762C20.1292 24.9183 20.8206 25.6264 20.8206 26.5V54.7244ZM15.9892 22.2577C12.54 22.2577 9.74382 19.3939 9.74382 15.8613C9.74382 12.3287 12.54 9.46495 15.9892 9.46495C19.4384 9.46495 22.2346 12.3287 22.2346 15.8613C22.2346 19.3939 19.4386 22.2577 15.9892 22.2577ZM55.1764 54.8518C55.1764 55.6549 54.5406 56.3061 53.7564 56.3061H46.702C45.9178 56.3061 45.282 55.6549 45.282 54.8518V41.6129C45.282 39.638 45.8476 32.9586 40.2427 32.9586C35.895 32.9586 35.0132 37.5305 34.8361 39.5822V54.8518C34.8361 55.6549 34.2004 56.3061 33.4161 56.3061H26.5933C25.8091 56.3061 25.1733 55.6549 25.1733 54.8518V26.3726C25.1733 25.5695 25.8091 24.9183 26.5933 24.9183H33.4161C34.2003 24.9183 34.8361 25.5695 34.8361 26.3726V28.835C36.4482 26.3572 38.844 24.4447 43.9451 24.4447C55.2411 24.4447 55.1764 35.253 55.1764 41.1917V54.8518Z" fill="#101010"/>
</svg>
