<svg width="65" height="66" viewBox="0 0 65 66" fill="none" xmlns="http://www.w3.org/2000/svg">
<path d="M56.5264 3.14648H8.4735C5.54263 3.14648 3.16663 5.57993 3.16663 8.58166V57.7961C3.16663 60.798 5.54263 63.2315 8.4735 63.2315H56.5263C59.4573 63.2315 61.8333 60.798 61.8333 57.7961V8.58166C61.8333 5.57993 59.4573 3.14648 56.5264 3.14648ZM21.3206 55.0278C21.3206 55.9014 20.6292 56.6095 19.7762 56.6095H13.2022C12.3492 56.6095 11.6578 55.9014 11.6578 55.0278V26.8035C11.6578 25.9299 12.3492 25.2217 13.2022 25.2217H19.7762C20.6292 25.2217 21.3206 25.9299 21.3206 26.8035V55.0278ZM16.4892 22.5612C13.04 22.5612 10.2438 19.6974 10.2438 16.1648C10.2438 12.6322 13.04 9.76842 16.4892 9.76842C19.9384 9.76842 22.7346 12.6322 22.7346 16.1648C22.7346 19.6974 19.9385 22.5612 16.4892 22.5612ZM55.6764 55.1552C55.6764 55.9584 55.0405 56.6095 54.2564 56.6095H47.2019C46.4178 56.6095 45.782 55.9584 45.782 55.1552V41.9164C45.782 39.9415 46.3476 33.2621 40.7426 33.2621C36.395 33.2621 35.5131 37.8339 35.3361 39.8856V55.1552C35.3361 55.9584 34.7004 56.6095 33.9161 56.6095H27.0933C26.3091 56.6095 25.6733 55.9584 25.6733 55.1552V26.676C25.6733 25.8729 26.3091 25.2217 27.0933 25.2217H33.9161C34.7003 25.2217 35.3361 25.8729 35.3361 26.676V29.1384C36.9482 26.6606 39.344 24.7481 44.4451 24.7481C55.741 24.7481 55.6764 35.5565 55.6764 41.4952V55.1552Z" fill="#FFF5E2"/>
</svg>
