<svg width="193" height="36" viewBox="0 0 193 36" fill="none" xmlns="http://www.w3.org/2000/svg">
<mask id="path-1-outside-1_219_38" maskUnits="userSpaceOnUse" x="1" y="8" width="174" height="29" fill="black">
<rect fill="white" x="1" y="8" width="174" height="29"/>
<path d="M2.988 35V9.8H7.812L22.68 27.944H20.34V9.8H26.1V35H21.312L6.408 16.856H8.748V35H2.988ZM37.1022 35V9.8H42.9342V35H37.1022ZM52.3347 35V31.22L67.9227 12.428L68.6427 14.552H52.6227V9.8H73.8267V13.58L58.2747 32.372L57.5547 30.248H74.3667V35H52.3347ZM79.8351 35L91.0671 9.8H96.8271L108.095 35H101.975L92.7591 12.752H95.0631L85.8111 35H79.8351ZM85.4511 29.6L86.9991 25.172H99.9591L101.543 29.6H85.4511ZM115.75 35V9.8H126.658C128.914 9.8 130.858 10.172 132.49 10.916C134.122 11.636 135.382 12.68 136.27 14.048C137.158 15.416 137.602 17.048 137.602 18.944C137.602 20.816 137.158 22.436 136.27 23.804C135.382 25.148 134.122 26.18 132.49 26.9C130.858 27.62 128.914 27.98 126.658 27.98H118.99L121.582 25.424V35H115.75ZM131.77 35L125.47 25.856H131.698L138.07 35H131.77ZM121.582 26.072L118.99 23.336H126.334C128.134 23.336 129.478 22.952 130.366 22.184C131.254 21.392 131.698 20.312 131.698 18.944C131.698 17.552 131.254 16.472 130.366 15.704C129.478 14.936 128.134 14.552 126.334 14.552H118.99L121.582 11.78V26.072ZM159.502 35.432C157.51 35.432 155.662 35.108 153.958 34.46C152.278 33.812 150.814 32.9 149.566 31.724C148.342 30.548 147.382 29.168 146.686 27.584C146.014 26 145.678 24.272 145.678 22.4C145.678 20.528 146.014 18.8 146.686 17.216C147.382 15.632 148.354 14.252 149.602 13.076C150.85 11.9 152.314 10.988 153.994 10.34C155.674 9.692 157.498 9.368 159.466 9.368C161.458 9.368 163.282 9.692 164.938 10.34C166.618 10.988 168.07 11.9 169.294 13.076C170.542 14.252 171.514 15.632 172.21 17.216C172.906 18.776 173.254 20.504 173.254 22.4C173.254 24.272 172.906 26.012 172.21 27.62C171.514 29.204 170.542 30.584 169.294 31.76C168.07 32.912 166.618 33.812 164.938 34.46C163.282 35.108 161.47 35.432 159.502 35.432ZM159.466 30.464C160.594 30.464 161.626 30.272 162.562 29.888C163.522 29.504 164.362 28.952 165.082 28.232C165.802 27.512 166.354 26.66 166.738 25.676C167.146 24.692 167.35 23.6 167.35 22.4C167.35 21.2 167.146 20.108 166.738 19.124C166.354 18.14 165.802 17.288 165.082 16.568C164.386 15.848 163.558 15.296 162.598 14.912C161.638 14.528 160.594 14.336 159.466 14.336C158.338 14.336 157.294 14.528 156.334 14.912C155.398 15.296 154.57 15.848 153.85 16.568C153.13 17.288 152.566 18.14 152.158 19.124C151.774 20.108 151.582 21.2 151.582 22.4C151.582 23.576 151.774 24.668 152.158 25.676C152.566 26.66 153.118 27.512 153.814 28.232C154.534 28.952 155.374 29.504 156.334 29.888C157.294 30.272 158.338 30.464 159.466 30.464Z"/>
</mask>
<path d="M2.988 35H1.988C1.988 35.5523 2.43572 36 2.988 36V35ZM2.988 9.8V8.8C2.43572 8.8 1.988 9.24771 1.988 9.8H2.988ZM7.812 9.8L8.58548 9.16618C8.39554 8.93439 8.11167 8.8 7.812 8.8V9.8ZM22.68 27.944V28.944C23.0665 28.944 23.4184 28.7212 23.5838 28.3719C23.7492 28.0225 23.6985 27.6091 23.4535 27.3102L22.68 27.944ZM20.34 27.944H19.34C19.34 28.4963 19.7877 28.944 20.34 28.944V27.944ZM20.34 9.8V8.8C19.7877 8.8 19.34 9.24771 19.34 9.8H20.34ZM26.1 9.8H27.1C27.1 9.24771 26.6523 8.8 26.1 8.8V9.8ZM26.1 35V36C26.6523 36 27.1 35.5523 27.1 35H26.1ZM21.312 35L20.5393 35.6347C20.7292 35.866 21.0127 36 21.312 36V35ZM6.408 16.856V15.856C6.02126 15.856 5.66919 16.079 5.50392 16.4286C5.33864 16.7783 5.38979 17.1919 5.63527 17.4907L6.408 16.856ZM8.748 16.856H9.748C9.748 16.3037 9.30029 15.856 8.748 15.856V16.856ZM8.748 35V36C9.30029 36 9.748 35.5523 9.748 35H8.748ZM3.988 35V9.8H1.988V35H3.988ZM2.988 10.8H7.812V8.8H2.988V10.8ZM7.03852 10.4338L21.9065 28.5778L23.4535 27.3102L8.58548 9.16618L7.03852 10.4338ZM22.68 26.944H20.34V28.944H22.68V26.944ZM21.34 27.944V9.8H19.34V27.944H21.34ZM20.34 10.8H26.1V8.8H20.34V10.8ZM25.1 9.8V35H27.1V9.8H25.1ZM26.1 34H21.312V36H26.1V34ZM22.0847 34.3653L7.18073 16.2213L5.63527 17.4907L20.5393 35.6347L22.0847 34.3653ZM6.408 17.856H8.748V15.856H6.408V17.856ZM7.748 16.856V35H9.748V16.856H7.748ZM8.748 34H2.988V36H8.748V34ZM37.1022 35H36.1022C36.1022 35.5523 36.5499 36 37.1022 36V35ZM37.1022 9.8V8.8C36.5499 8.8 36.1022 9.24771 36.1022 9.8H37.1022ZM42.9342 9.8H43.9342C43.9342 9.24771 43.4865 8.8 42.9342 8.8V9.8ZM42.9342 35V36C43.4865 36 43.9342 35.5523 43.9342 35H42.9342ZM38.1022 35V9.8H36.1022V35H38.1022ZM37.1022 10.8H42.9342V8.8H37.1022V10.8ZM41.9342 9.8V35H43.9342V9.8H41.9342ZM42.9342 34H37.1022V36H42.9342V34ZM52.3347 35H51.3347C51.3347 35.5523 51.7824 36 52.3347 36V35ZM52.3347 31.22L51.5651 30.5816C51.4162 30.761 51.3347 30.9868 51.3347 31.22H52.3347ZM67.9227 12.428L68.8698 12.107C68.7535 11.7639 68.4607 11.5105 68.1045 11.4447C67.7483 11.3788 67.3843 11.5107 67.1531 11.7896L67.9227 12.428ZM68.6427 14.552V15.552C68.9651 15.552 69.2676 15.3966 69.4554 15.1346C69.6433 14.8727 69.6933 14.5362 69.5898 14.231L68.6427 14.552ZM52.6227 14.552H51.6227C51.6227 15.1043 52.0704 15.552 52.6227 15.552V14.552ZM52.6227 9.8V8.8C52.0704 8.8 51.6227 9.24771 51.6227 9.8H52.6227ZM73.8267 9.8H74.8267C74.8267 9.24771 74.379 8.8 73.8267 8.8V9.8ZM73.8267 13.58L74.5971 14.2176C74.7455 14.0382 74.8267 13.8128 74.8267 13.58H73.8267ZM58.2747 32.372L57.3277 32.693C57.444 33.0363 57.737 33.2897 58.0935 33.3554C58.4499 33.4211 58.814 33.2888 59.0451 33.0096L58.2747 32.372ZM57.5547 30.248V29.248C57.2324 29.248 56.9298 29.4034 56.742 29.6654C56.5542 29.9273 56.5042 30.2638 56.6077 30.569L57.5547 30.248ZM74.3667 30.248H75.3667C75.3667 29.6957 74.919 29.248 74.3667 29.248V30.248ZM74.3667 35V36C74.919 36 75.3667 35.5523 75.3667 35H74.3667ZM53.3347 35V31.22H51.3347V35H53.3347ZM53.1044 31.8584L68.6924 13.0664L67.1531 11.7896L51.5651 30.5816L53.1044 31.8584ZM66.9757 12.749L67.6957 14.873L69.5898 14.231L68.8698 12.107L66.9757 12.749ZM68.6427 13.552H52.6227V15.552H68.6427V13.552ZM53.6227 14.552V9.8H51.6227V14.552H53.6227ZM52.6227 10.8H73.8267V8.8H52.6227V10.8ZM72.8267 9.8V13.58H74.8267V9.8H72.8267ZM73.0563 12.9424L57.5043 31.7344L59.0451 33.0096L74.5971 14.2176L73.0563 12.9424ZM59.2218 32.051L58.5018 29.927L56.6077 30.569L57.3277 32.693L59.2218 32.051ZM57.5547 31.248H74.3667V29.248H57.5547V31.248ZM73.3667 30.248V35H75.3667V30.248H73.3667ZM74.3667 34H52.3347V36H74.3667V34ZM79.8351 35L78.9217 34.5929C78.7838 34.9023 78.8119 35.2604 78.9963 35.5445C79.1807 35.8286 79.4964 36 79.8351 36V35ZM91.0671 9.8V8.8C90.6723 8.8 90.3144 9.03228 90.1537 9.39289L91.0671 9.8ZM96.8271 9.8L97.74 9.3918C97.579 9.03178 97.2214 8.8 96.8271 8.8V9.8ZM108.095 35V36C108.434 36 108.75 35.8283 108.934 35.544C109.119 35.2596 109.146 34.9012 109.008 34.5918L108.095 35ZM101.975 35L101.051 35.3827C101.206 35.7564 101.571 36 101.975 36V35ZM92.7591 12.752V11.752C92.4251 11.752 92.1131 11.9187 91.9276 12.1964C91.742 12.4741 91.7074 12.8261 91.8352 13.1347L92.7591 12.752ZM95.0631 12.752L95.9864 13.136C96.1147 12.8274 96.0804 12.475 95.8949 12.197C95.7094 11.919 95.3973 11.752 95.0631 11.752V12.752ZM85.8111 35V36C86.215 36 86.5793 35.757 86.7344 35.384L85.8111 35ZM85.4511 29.6L84.5071 29.27C84.4002 29.5759 84.4481 29.9146 84.6356 30.1788C84.8231 30.443 85.1271 30.6 85.4511 30.6V29.6ZM86.9991 25.172V24.172C86.574 24.172 86.1954 24.4407 86.0551 24.842L86.9991 25.172ZM99.9591 25.172L100.901 24.8352C100.758 24.4374 100.381 24.172 99.9591 24.172V25.172ZM101.543 29.6V30.6C101.868 30.6 102.173 30.4418 102.361 30.1758C102.548 29.9099 102.594 29.5695 102.485 29.2632L101.543 29.6ZM80.7484 35.4071L91.9804 10.2071L90.1537 9.39289L78.9217 34.5929L80.7484 35.4071ZM91.0671 10.8H96.8271V8.8H91.0671V10.8ZM95.9142 10.2082L107.182 35.4082L109.008 34.5918L97.74 9.3918L95.9142 10.2082ZM108.095 34H101.975V36H108.095V34ZM102.899 34.6173L93.6829 12.3693L91.8352 13.1347L101.051 35.3827L102.899 34.6173ZM92.7591 13.752H95.0631V11.752H92.7591V13.752ZM94.1397 12.368L84.8877 34.616L86.7344 35.384L95.9864 13.136L94.1397 12.368ZM85.8111 34H79.8351V36H85.8111V34ZM86.395 29.93L87.943 25.502L86.0551 24.842L84.5071 29.27L86.395 29.93ZM86.9991 26.172H99.9591V24.172H86.9991V26.172ZM99.0175 25.5088L100.601 29.9368L102.485 29.2632L100.901 24.8352L99.0175 25.5088ZM101.543 28.6H85.4511V30.6H101.543V28.6ZM115.75 35H114.75C114.75 35.5523 115.197 36 115.75 36V35ZM115.75 9.8V8.8C115.197 8.8 114.75 9.24771 114.75 9.8H115.75ZM132.49 10.916L132.075 11.826L132.086 11.8309L132.49 10.916ZM136.27 14.048L135.431 14.5925L135.431 14.5925L136.27 14.048ZM136.27 23.804L137.104 24.3553L137.108 24.3485L136.27 23.804ZM132.49 26.9L132.893 27.8149L132.893 27.8149L132.49 26.9ZM118.99 27.98L118.287 27.268C117.999 27.5529 117.91 27.9841 118.064 28.3595C118.218 28.7348 118.584 28.98 118.99 28.98V27.98ZM121.582 25.424H122.582C122.582 25.0208 122.339 24.6571 121.967 24.5015C121.596 24.3459 121.167 24.4289 120.879 24.712L121.582 25.424ZM121.582 35V36C122.134 36 122.582 35.5523 122.582 35H121.582ZM131.77 35L130.946 35.5674C131.133 35.8382 131.441 36 131.77 36V35ZM125.47 25.856V24.856C125.098 24.856 124.757 25.062 124.584 25.3909C124.412 25.7198 124.435 26.1174 124.646 26.4234L125.47 25.856ZM131.698 25.856L132.518 25.2843C132.331 25.0159 132.025 24.856 131.698 24.856V25.856ZM138.07 35V36C138.442 36 138.784 35.793 138.956 35.4627C139.128 35.1325 139.103 34.7339 138.89 34.4283L138.07 35ZM121.582 26.072L120.856 26.7597C121.137 27.0569 121.571 27.1525 121.952 27.001C122.332 26.8494 122.582 26.4814 122.582 26.072H121.582ZM118.99 23.336V22.336C118.59 22.336 118.229 22.5738 118.071 22.9409C117.913 23.3079 117.989 23.7337 118.264 24.0237L118.99 23.336ZM130.366 22.184L131.02 22.9404C131.024 22.937 131.027 22.9337 131.031 22.9303L130.366 22.184ZM118.99 14.552L118.259 13.869C117.987 14.16 117.914 14.5847 118.072 14.9501C118.231 15.3156 118.591 15.552 118.99 15.552V14.552ZM121.582 11.78H122.582C122.582 11.3694 122.331 11.0006 121.949 10.8498C121.567 10.6991 121.132 10.7971 120.851 11.097L121.582 11.78ZM116.75 35V9.8H114.75V35H116.75ZM115.75 10.8H126.658V8.8H115.75V10.8ZM126.658 10.8C128.806 10.8 130.602 11.1545 132.075 11.8259L132.904 10.0061C131.113 9.18949 129.021 8.8 126.658 8.8V10.8ZM132.086 11.8309C133.557 12.4801 134.659 13.4029 135.431 14.5925L137.108 13.5035C136.105 11.9571 134.686 10.7919 132.893 10.0011L132.086 11.8309ZM135.431 14.5925C136.197 15.7734 136.602 17.2092 136.602 18.944H138.602C138.602 16.8868 138.118 15.0586 137.108 13.5035L135.431 14.5925ZM136.602 18.944C136.602 20.652 136.199 22.0766 135.431 23.2595L137.108 24.3485C138.116 22.7954 138.602 20.98 138.602 18.944H136.602ZM135.435 23.2527C134.664 24.4198 133.562 25.3339 132.086 25.9851L132.893 27.8149C134.681 27.0261 136.099 25.8762 137.104 24.3553L135.435 23.2527ZM132.086 25.9851C130.61 26.6362 128.81 26.98 126.658 26.98V28.98C129.017 28.98 131.105 28.6038 132.893 27.8149L132.086 25.9851ZM126.658 26.98H118.99V28.98H126.658V26.98ZM119.692 28.692L122.284 26.136L120.879 24.712L118.287 27.268L119.692 28.692ZM120.582 25.424V35H122.582V25.424H120.582ZM121.582 34H115.75V36H121.582V34ZM132.593 34.4326L126.293 25.2886L124.646 26.4234L130.946 35.5674L132.593 34.4326ZM125.47 26.856H131.698V24.856H125.47V26.856ZM130.877 26.4277L137.249 35.5717L138.89 34.4283L132.518 25.2843L130.877 26.4277ZM138.07 34H131.77V36H138.07V34ZM122.308 25.3843L119.716 22.6483L118.264 24.0237L120.856 26.7597L122.308 25.3843ZM118.99 24.336H126.334V22.336H118.99V24.336ZM126.334 24.336C128.251 24.336 129.875 23.9306 131.02 22.9404L129.711 21.4276C129.08 21.9734 128.016 22.336 126.334 22.336V24.336ZM131.031 22.9303C132.165 21.9193 132.698 20.5499 132.698 18.944H130.698C130.698 20.0741 130.342 20.8647 129.7 21.4377L131.031 22.9303ZM132.698 18.944C132.698 17.3209 132.169 15.9412 131.02 14.9476L129.711 16.4604C130.339 17.0028 130.698 17.7831 130.698 18.944H132.698ZM131.02 14.9476C129.875 13.9574 128.251 13.552 126.334 13.552V15.552C128.016 15.552 129.08 15.9146 129.711 16.4604L131.02 14.9476ZM126.334 13.552H118.99V15.552H126.334V13.552ZM119.72 15.235L122.312 12.463L120.851 11.097L118.259 13.869L119.72 15.235ZM120.582 11.78V26.072H122.582V11.78H120.582ZM153.958 34.46L153.598 35.393L153.603 35.3947L153.958 34.46ZM149.566 31.724L148.873 32.4451L148.88 32.4518L149.566 31.724ZM146.686 27.584L145.766 27.9746L145.771 27.9863L146.686 27.584ZM146.686 17.216L145.771 16.8137L145.766 16.8254L146.686 17.216ZM153.994 10.34L153.634 9.407L153.634 9.407L153.994 10.34ZM164.938 10.34L164.574 11.2713L164.578 11.273L164.938 10.34ZM169.294 13.076L168.601 13.7971L168.608 13.8038L169.294 13.076ZM172.21 17.216L171.295 17.6183L171.297 17.6234L172.21 17.216ZM172.21 27.62L173.126 28.0223L173.128 28.0172L172.21 27.62ZM169.294 31.76L169.98 32.4882L169.98 32.4878L169.294 31.76ZM164.938 34.46L164.578 33.527L164.574 33.5288L164.938 34.46ZM162.562 29.888L162.191 28.9595L162.183 28.9628L162.562 29.888ZM165.082 28.232L164.375 27.5249L164.375 27.5249L165.082 28.232ZM166.738 25.676L165.814 25.293C165.812 25.2994 165.809 25.3059 165.807 25.3125L166.738 25.676ZM166.738 19.124L165.807 19.4875C165.809 19.4941 165.812 19.5006 165.814 19.507L166.738 19.124ZM165.082 16.568L164.363 17.263C164.367 17.2671 164.371 17.2711 164.375 17.2751L165.082 16.568ZM162.598 14.912L162.227 15.8405L162.227 15.8405L162.598 14.912ZM156.334 14.912L155.963 13.9835L155.955 13.9868L156.334 14.912ZM153.85 16.568L154.557 17.2751L154.557 17.2751L153.85 16.568ZM152.158 19.124L151.234 18.741C151.232 18.7474 151.229 18.7539 151.227 18.7605L152.158 19.124ZM152.158 25.676L151.224 26.032C151.227 26.0411 151.231 26.0501 151.234 26.059L152.158 25.676ZM153.814 28.232L153.095 28.927C153.099 28.9311 153.103 28.9351 153.107 28.9391L153.814 28.232ZM156.334 29.888L155.963 30.8165L155.963 30.8165L156.334 29.888ZM159.502 34.432C157.62 34.432 155.894 34.1263 154.314 33.5253L153.603 35.3947C155.43 36.0897 157.4 36.432 159.502 36.432V34.432ZM154.318 33.527C152.753 32.9233 151.401 32.0789 150.252 30.9962L148.88 32.4518C150.227 33.7211 151.804 34.7007 153.598 35.393L154.318 33.527ZM150.259 31.0029C149.131 29.9194 148.246 28.6483 147.602 27.1817L145.771 27.9863C146.518 29.6877 147.553 31.1766 148.873 32.4451L150.259 31.0029ZM147.607 27.1934C146.992 25.7435 146.678 24.1497 146.678 22.4H144.678C144.678 24.3943 145.037 26.2565 145.766 27.9745L147.607 27.1934ZM146.678 22.4C146.678 20.6503 146.992 19.0565 147.607 17.6065L145.766 16.8254C145.037 18.5435 144.678 20.4057 144.678 22.4H146.678ZM147.602 17.6183C148.244 16.156 149.139 14.8869 150.288 13.8038L148.916 12.3482C147.57 13.6171 146.52 15.108 145.771 16.8137L147.602 17.6183ZM150.288 13.8038C151.437 12.7211 152.789 11.8767 154.354 11.273L153.634 9.407C151.84 10.0993 150.263 11.0789 148.916 12.3482L150.288 13.8038ZM154.354 11.273C155.909 10.6732 157.61 10.368 159.466 10.368V8.368C157.387 8.368 155.439 8.71077 153.634 9.407L154.354 11.273ZM159.466 10.368C161.348 10.368 163.047 10.6738 164.574 11.2712L165.303 9.40875C163.517 8.71018 161.568 8.368 159.466 8.368V10.368ZM164.578 11.273C166.142 11.8761 167.479 12.7187 168.601 13.7971L169.987 12.3549C168.661 11.0813 167.094 10.0999 165.298 9.407L164.578 11.273ZM168.608 13.8038C169.758 14.8869 170.652 16.156 171.295 17.6183L173.126 16.8137C172.376 15.108 171.327 13.6171 169.98 12.3482L168.608 13.8038ZM171.297 17.6234C171.93 19.0418 172.254 20.6289 172.254 22.4H174.254C174.254 20.3791 173.883 18.5102 173.123 16.8086L171.297 17.6234ZM172.254 22.4C172.254 24.1448 171.931 25.7486 171.292 27.2228L173.128 28.0172C173.882 26.2754 174.254 24.3992 174.254 22.4H172.254ZM171.295 27.2177C170.652 28.68 169.758 29.9491 168.608 31.0322L169.98 32.4878C171.327 31.2189 172.376 29.728 173.126 28.0223L171.295 27.2177ZM168.609 31.0318C167.486 32.0889 166.146 32.9222 164.578 33.527L165.298 35.393C167.09 34.7018 168.655 33.7351 169.98 32.4882L168.609 31.0318ZM164.574 33.5288C163.046 34.1267 161.359 34.432 159.502 34.432V36.432C161.582 36.432 163.519 36.0893 165.303 35.3912L164.574 33.5288ZM159.466 31.464C160.709 31.464 161.872 31.252 162.942 30.8132L162.183 28.9628C161.38 29.292 160.479 29.464 159.466 29.464V31.464ZM162.934 30.8165C164.017 30.383 164.972 29.7564 165.789 28.9391L164.375 27.5249C163.752 28.1476 163.027 28.625 162.191 28.9595L162.934 30.8165ZM165.789 28.9391C166.611 28.1177 167.237 27.1474 167.67 26.0395L165.807 25.3125C165.471 26.1726 164.994 26.9063 164.375 27.5249L165.789 28.9391ZM167.662 26.059C168.126 24.9392 168.35 23.7149 168.35 22.4H166.35C166.35 23.4851 166.166 24.4448 165.814 25.293L167.662 26.059ZM168.35 22.4C168.35 21.0851 168.126 19.8608 167.662 18.741L165.814 19.507C166.166 20.3552 166.35 21.3149 166.35 22.4H168.35ZM167.67 18.7605C167.237 17.6526 166.611 16.6823 165.789 15.8609L164.375 17.2751C164.994 17.8937 165.471 18.6274 165.807 19.4875L167.67 18.7605ZM165.801 15.873C165.004 15.0482 164.056 14.4182 162.97 13.9835L162.227 15.8405C163.06 16.1738 163.769 16.6478 164.363 17.263L165.801 15.873ZM162.97 13.9835C161.881 13.5481 160.71 13.336 159.466 13.336V15.336C160.479 15.336 161.395 15.5079 162.227 15.8405L162.97 13.9835ZM159.466 13.336C158.223 13.336 157.051 13.5481 155.963 13.9835L156.706 15.8405C157.537 15.5079 158.454 15.336 159.466 15.336V13.336ZM155.955 13.9868C154.895 14.4214 153.956 15.0478 153.143 15.8609L154.557 17.2751C155.184 16.6481 155.901 16.1706 156.714 15.8372L155.955 13.9868ZM153.143 15.8609C152.326 16.6779 151.69 17.6415 151.234 18.741L153.082 19.507C153.442 18.6385 153.934 17.8981 154.557 17.2751L153.143 15.8609ZM151.227 18.7605C150.792 19.875 150.582 21.0924 150.582 22.4H152.582C152.582 21.3076 152.757 20.341 153.09 19.4875L151.227 18.7605ZM150.582 22.4C150.582 23.6867 150.793 24.9005 151.224 26.032L153.093 25.32C152.756 24.4355 152.582 23.4653 152.582 22.4H150.582ZM151.234 26.059C151.687 27.1515 152.307 28.1112 153.095 28.927L154.533 27.537C153.93 26.9128 153.445 26.1685 153.082 25.293L151.234 26.059ZM153.107 28.9391C153.924 29.7564 154.879 30.383 155.963 30.8165L156.706 28.9595C155.869 28.625 155.144 28.1476 154.521 27.5249L153.107 28.9391ZM155.963 30.8165C157.051 31.2519 158.223 31.464 159.466 31.464V29.464C158.454 29.464 157.537 29.2921 156.706 28.9595L155.963 30.8165Z" fill="black" mask="url(#path-1-outside-1_219_38)"/>
<path d="M144.659 34.6341C144.457 34.8222 144.446 35.1386 144.634 35.3407C144.822 35.5428 145.139 35.5541 145.341 35.3659L144.659 34.6341ZM174.5 8.01784C174.51 7.74188 174.294 7.51017 174.018 7.50032L169.521 7.33971C169.245 7.32985 169.013 7.54557 169.003 7.82154C168.993 8.09751 169.209 8.32921 169.485 8.33907L173.482 8.48183L173.34 12.4793C173.33 12.7553 173.546 12.987 173.822 12.9968C174.098 13.0067 174.329 12.7909 174.339 12.515L174.5 8.01784ZM145.341 35.3659L174.341 8.36595L173.659 7.63405L144.659 34.6341L145.341 35.3659Z" fill="black"/>
</svg>
