<svg width="64" height="66" viewBox="0 0 64 66" fill="none" xmlns="http://www.w3.org/2000/svg">
<path d="M61.3333 14.4415C59.0688 15.4753 56.6448 16.1756 54.1251 16.5091C56.7086 14.875 58.718 12.3071 59.6429 9.27231C57.2189 10.773 54.5079 11.8736 51.6693 12.4405C49.3729 9.90594 46.1196 8.30518 42.4836 8.30518C35.5306 8.30518 29.9171 14.1747 29.9171 21.4115C29.9171 22.4453 30.0128 23.4458 30.2361 24.3796C19.7747 23.846 10.5252 18.6101 4.30577 10.7063C3.22136 12.6406 2.61536 14.875 2.61536 17.2761C2.61536 21.8117 4.84798 25.8469 8.19691 28.1814C6.12376 28.1147 4.21009 27.5144 2.48778 26.5473V26.714C2.48778 33.0504 6.82545 38.3529 12.5665 39.5535C11.514 39.8537 10.3976 40.0204 9.24944 40.0204C8.45207 40.0204 7.65471 39.9537 6.88924 39.787C8.48397 44.9895 13.1406 48.7913 18.6265 48.8913C14.3207 52.393 8.8986 54.494 2.99809 54.494C1.97747 54.494 0.988733 54.4273 0 54.2939C5.58156 58.029 12.1837 60.1968 19.2643 60.1968C42.3879 60.1968 55.0501 40.2205 55.0501 22.9122C55.0501 22.3452 55.0501 21.7783 55.0182 21.2114C57.506 19.3772 59.6429 17.0761 61.3333 14.4415Z" fill="#101010"/>
</svg>
